<svg width="1971" height="687" viewBox="0 0 1971 687" fill="none" xmlns="http://www.w3.org/2000/svg">
<g opacity="0.4" clip-path="url(#clip0_2656_728)">
<path d="M1842.09 0C1770.73 0 1713 57.7268 1713 129.089C1713 200.273 1770.73 258.177 1842.09 258.177C1913.27 258.177 1971.18 200.45 1971.18 129.089C1971 57.7268 1913.27 0 1842.09 0ZM1842.09 249.855C1775.33 249.855 1721.32 195.846 1721.32 129.089C1721.32 62.3308 1775.33 8.32258 1842.09 8.32258C1908.85 8.32258 1962.85 62.3308 1962.85 129.089C1962.85 195.669 1908.67 249.855 1842.09 249.855Z" fill="white"/>
<path d="M1842.09 27.8008C1786.31 27.8008 1740.98 73.1323 1740.98 128.911C1740.98 184.69 1786.31 230.022 1842.09 230.022C1897.87 230.022 1943.2 184.867 1943.2 129.088C1943.2 73.1323 1897.87 27.8008 1842.09 27.8008ZM1842.09 214.616C1794.81 214.616 1756.38 176.191 1756.38 128.911C1756.38 81.6319 1794.81 43.2064 1842.09 43.2064C1889.37 43.2064 1927.79 81.6319 1927.79 128.911C1927.79 176.191 1889.37 214.616 1842.09 214.616Z" fill="white"/>
</g>
<g opacity="0.6">
<path d="M78.8238 626.717L89.9995 626.717L89.9995 597L60.2822 597L60.2822 608.091L78.8238 608.091L78.8238 626.717Z" fill="white"/>
<path d="M58.7593 646.782L69.8504 646.782L69.8504 617.064L40.2178 617.064L40.2178 628.24L58.7593 628.24L58.7593 646.782Z" fill="white"/>
<path d="M38.606 666.849L49.7818 666.849L49.7818 637.217L20.0645 637.217L20.0645 648.308L38.606 648.308L38.606 666.849Z" fill="white"/>
<path d="M18.5416 686.999L29.7173 686.999L29.7173 657.281L0 657.281L-5.86103e-07 668.457L18.5416 668.457L18.5416 686.999Z" fill="white"/>
</g>
<defs>
<clipPath id="clip0_2656_728">
<rect width="258" height="258" fill="white" transform="translate(1713)"/>
</clipPath>
</defs>
</svg>
